# xmcd
#
# Track frame offsets: 
#        150
#        1797
#        25145
#        38787
#        57686
#        59006
#        79094
#        93749
#        106590
#        126703
#        150462
#        162895
#        180427
#        196162
#        197349
#        212115
#
# Disc length: 3412 seconds
#
# Revision: 3
# Processed by: cddbd v1.4PL0 Copyright (c) Steve Scherf et al.
# Submitted via: ExactAudioCopy v0.90b4
#
DISCID=d00d5210
DTITLE=Asylum Street Spankers - Spanks For The Memories
DYEAR=1996
DGENRE=Blues
TTITLE0=Introduction
TTITLE1=If I Had Possession Over Judgement Day
TTITLE2=Superchief
TTITLE3=Song With No Words
TTITLE4=Introduction
TTITLE5=Lee Harvey
TTITLE6=I'll See You In My Dreams
TTITLE7=Hesitation Blues
TTITLE8=Startin' to Hate Country
TTITLE9=Walkin' and Whistlin' Blues
TTITLE10=Shave 'em Day
TTITLE11=Brazil
TTITLE12=Tradewinds
TTITLE13=Introduction
TTITLE14=Funny Cigarette
TTITLE15=Hometown Boy
EXTD=
EXTT0=
EXTT1=
EXTT2=
EXTT3=
EXTT4=
EXTT5=
EXTT6=
EXTT7=
EXTT8=
EXTT9=
EXTT10=
EXTT11=
EXTT12=
EXTT13=
EXTT14=
EXTT15=
PLAYORDER=
